<svg xmlns="http://www.w3.org/2000/svg" viewBox="0 0 862.18 229.48"><defs><style>.cls-1{fill:#899d50;}.cls-2{fill:#46454a;}</style></defs><g id="Layer_2" data-name="Layer 2"><g id="text"><path class="cls-1" d="M47.44,167.51H27.92v51.08a8.52,8.52,0,0,1-8.4,8.39H8.4A8.52,8.52,0,0,1,0,218.59V76.48a8.38,8.38,0,0,1,8.4-8.4c13.62-.23,36.32-.45,40-.45,43.36,0,57.66,21.56,57.66,49,0,27.24-17.48,40.86-30.64,45.4l39.49,51.76a7.52,7.52,0,0,1,1.82,5,8.13,8.13,0,0,1-8.17,8.17H98.07a14.12,14.12,0,0,1-10.9-5.67ZM46.08,141.4c16.12,0,30.42-8.17,30.42-24.51,0-12.49-6.81-23.16-29.51-23.16-5.22,0-11.58.23-19.07.46V141.4Z"/><path class="cls-1" d="M202,203.38a12.49,12.49,0,0,1,5.22-1.59c2.5,0,4.77,1.36,6.59,3.86l2,2.95a8.16,8.16,0,0,1,1.36,4.54,8,8,0,0,1-3.63,6.81,64.36,64.36,0,0,1-34.28,9.53c-32.91,0-54.93-21.34-54.93-53.57,0-29.74,20.43-53.57,54-53.57,26.34,0,48.36,18.84,48.36,47.44a46.8,46.8,0,0,1-.23,5.9c-.23,3.86-4.77,8.17-8.85,8.17H151.41c2.27,15.44,14.53,23.84,30.65,23.84A43.37,43.37,0,0,0,202,203.38Zm-1.36-37v-.45c0-12.26-8.62-21.79-23.38-21.79-15.66,0-24.06,8.85-26.79,22.24Z"/><path class="cls-2" d="M266.73,147.53c0,38.59,24.51,63.56,60.61,63.56,15,0,32.46-5.9,40.86-14.07V164.33H334.15a9.08,9.08,0,0,1,0-18.16h42.67a9.59,9.59,0,0,1,9.54,9.54v45.4a13.35,13.35,0,0,1-5.45,10.67c-14.53,11.12-36.55,17.47-54,17.47-49.48,0-80.58-32.23-80.58-81.72,0-45.62,30.64-81.72,78.09-81.72,17.93,0,32.46,4.31,43.58,10.9a8.83,8.83,0,0,1,4.77,7.49A9.62,9.62,0,0,1,371.38,89a8.55,8.55,0,0,1-7.5,4.08,12.11,12.11,0,0,1-5.9-1.59A67.17,67.17,0,0,0,326.66,84C291.24,84,266.73,109.17,266.73,147.53Z"/><path class="cls-2" d="M434.48,219.49a9.08,9.08,0,0,1-18.16,0V132.78a9.08,9.08,0,0,1,18.16,0v4.08c5.22-7.71,12.71-13.84,25.65-13.84a36.76,36.76,0,0,1,9.31,1.36c3.63,1.13,6.58,3.4,6.58,7.26a15.34,15.34,0,0,1-.46,3c-1.36,4.54-4.31,6.36-9.08,6.36a35.33,35.33,0,0,1-4.54-.45,27.5,27.5,0,0,0-6.13-.46c-11.8,0-17.47,7-21.33,14.53Z"/><path class="cls-2" d="M541.17,122.56c32.69,0,54.48,22.7,54.48,53.35s-21.79,53.34-54.48,53.34-54.48-22.7-54.48-53.34S508.48,122.56,541.17,122.56Zm0,89.67c20.43,0,35.18-14.53,35.18-36.32,0-21.34-14.75-36.32-35.18-36.32-20,0-35.19,14.75-35.19,36.32C506,197.25,520.74,212.23,541.17,212.23Z"/><path class="cls-2" d="M719.14,203.83c-1.59-5-3-10-4.77-14.75l-21.11-57.66c-1.82-5-5-7.72-10-7.72-5.22,0-8.4,2.72-10.22,7.72L652.17,189.3c-2,5.68-2.95,9.76-4.31,14.3-1.37-4.76-2.27-9.3-3.86-14.3l-18.39-59a8.86,8.86,0,0,0-8.85-6.58,9.11,9.11,0,0,0-9.31,8.85,13.69,13.69,0,0,0,.45,2.95l28.38,85.81c1.59,5,5,7.26,9.53,7.26,4.77,0,8.17-2.27,10-7.26l22.25-59.25a112.67,112.67,0,0,0,4.31-13.16,115,115,0,0,0,3.86,12.48l22.93,60.16c1.59,4.31,5.22,7,10.44,7a9.84,9.84,0,0,0,10-7.26S720.27,198.61,719.14,203.83Z"/></g><g id="plant"><path class="cls-2" d="M777.72,40.22c-2.13,7-27.8,1.79-43.17-2.13-15.16-3.87-28.2-11.55-22.73-24.2,5.72-13.25,25.83-11.78,37.94-8C765,10.6,780.23,31.91,777.72,40.22Z"/><path class="cls-2" d="M775.2,38.28c1.35,9.09,34,7.27,53.78,5.2,19.45-2,37-9.17,32.5-25.81C856.8.25,831.66-1.58,816,.88,796.32,4,773.6,27.55,775.2,38.28Z"/><path class="cls-2" d="M721.24,228.09c1.94.43,7.32-3.14,8.34-6.78L779.37,46.13c1-3.64,1.82-5.66-1.82-6.68h0c-3.64-1-5.3.68-6.61,4.22-8.6,23.28-51.81,160.16-51.81,160.16C718.12,207.47,719.44,227.7,721.24,228.09Z"/></g></g></svg>